<?xml version="1.0" standalone="no"?>
<!DOCTYPE svg PUBLIC "-//W3C//DTD SVG 20010904//EN"
 "http://www.w3.org/TR/2001/REC-SVG-20010904/DTD/svg10.dtd">
<svg version="1.0" xmlns="http://www.w3.org/2000/svg"
 width="2508.000000pt" height="2508.000000pt" viewBox="0 0 2508.000000 2508.000000"
 preserveAspectRatio="xMidYMid meet">

<g transform="translate(0.000000,2508.000000) scale(0.100000,-0.100000)"
fill="#000000" stroke="none">
<path d="M11930 25060 c-1782 -94 -3435 -526 -5000 -1309 -1688 -845 -3176
-2072 -4328 -3570 -542 -706 -1035 -1509 -1403 -2291 -1096 -2330 -1448 -4923
-1013 -7480 353 -2078 1241 -4052 2568 -5705 320 -398 530 -631 935 -1036 328
-327 527 -510 826 -759 2000 -1666 4461 -2668 7040 -2865 612 -46 1316 -48
1905 -5 2679 198 5183 1230 7230 2979 465 398 963 895 1365 1365 454 530 879
1119 1237 1716 1660 2765 2184 6080 1462 9250 -591 2593 -2027 4966 -4058
6705 -319 273 -730 589 -1066 820 -1327 911 -2806 1555 -4360 1899 -637 141
-1229 225 -1960 277 -198 14 -1163 20 -1380 9z m-2530 -5255 c659 -89 1150
-649 1150 -1314 0 -382 -175 -764 -460 -1004 -193 -163 -399 -262 -634 -304
-123 -22 -352 -22 -470 1 -277 53 -506 174 -701 370 -55 56 -124 135 -152 177
-108 158 -187 348 -217 524 -21 117 -21 355 -1 469 64 368 291 701 614 900
257 158 567 223 871 181z m4055 -10 c413 -79 775 -362 954 -746 161 -345 161
-768 1 -1115 -179 -388 -549 -674 -970 -750 -138 -25 -364 -23 -497 5 -527
110 -927 508 -1041 1035 -13 63 -17 126 -16 281 1 191 2 205 32 320 40 150
134 345 225 465 217 286 544 475 897 519 100 13 315 6 415 -14z m-2905 -7997
c0 -2680 -4 -4082 -10 -4158 -45 -498 -222 -960 -522 -1363 -111 -148 -371
-411 -510 -515 -408 -305 -860 -483 -1352 -531 -73 -7 -583 -11 -1513 -11
l-1403 0 0 1325 0 1324 1048 3 c967 3 1052 5 1107 21 245 72 420 251 482 492
17 65 18 144 18 1105 l0 1035 -1327 3 -1328 2 0 1325 0 1325 1328 2 1327 3 3
1328 2 1327 1325 0 1325 0 0 -4042z m3980 2712 l0 -1330 1403 0 c930 0 1440
-4 1513 -11 499 -49 976 -239 1374 -547 180 -140 409 -382 542 -573 266 -382
421 -804 468 -1278 6 -68 10 -1032 10 -2827 l0 -2724 -1325 0 -1325 0 -2 2373
-3 2372 -23 75 c-73 236 -244 402 -482 467 -60 17 -138 18 -1105 18 l-1040 0
-3 -2653 -2 -2652 -1325 0 -1325 0 0 5310 0 5310 1325 0 1325 0 0 -1330z"/>
</g>
</svg>
